# xmcd CD database file
#
# Track frame offsets:
#	150
#	26929
#	62083
#	90849
#	118002
#	147611
#	182831
#	214582
#	244839
#
# Disc length: 3770 seconds
#
# Revision: 1
# Processed by: cddbd v1.4PL0 Copyright (c) Steve Scherf et al.
# Submitted via: CDex 1.50Beta7
#
DISCID=810eb809
DTITLE=Todd Hunter - Have A Nice Trip
DYEAR=2003
DGENRE=Jazz
TTITLE0=Comin' Home, Baby
TTITLE1=Power Of The Fifth
TTITLE2=Car Tune
TTITLE3=Storybook Time
TTITLE4=Have A Nice Trip
TTITLE5=El Diablo Pequeño 
TTITLE6=Autumn Leaves
TTITLE7=Hannah's Song
TTITLE8=And So It Is
EXTD=YEAR: 2003
EXTT0=
EXTT1=
EXTT2=
EXTT3=
EXTT4=
EXTT5=
EXTT6=
EXTT7=
EXTT8=
PLAYORDER=
